<?xml version="1.0" standalone="no"?>
<!DOCTYPE svg PUBLIC "-//W3C//DTD SVG 20010904//EN"
 "http://www.w3.org/TR/2001/REC-SVG-20010904/DTD/svg10.dtd">
<svg version="1.0" xmlns="http://www.w3.org/2000/svg"
 width="600.000000pt" height="600.000000pt" viewBox="0 0 600.000000 600.000000"
 preserveAspectRatio="xMidYMid meet">
<metadata>
Created by potrace 1.11, written by Peter Selinger 2001-2013
</metadata>
<g transform="translate(0.000000,600.000000) scale(0.100000,-0.100000)"
fill="#000000" stroke="none">
<path d="M5280 4964 c-30 -13 -107 -42 -170 -65 -294 -106 -336 -121 -355
-129 -29 -13 -376 -136 -400 -142 -11 -3 -183 -53 -382 -112 -342 -100 -367
-109 -439 -156 -41 -27 -77 -50 -80 -50 -2 0 -50 -30 -106 -66 -57 -37 -112
-72 -124 -79 -19 -12 -57 -4 -164 38 -8 3 -49 18 -90 32 -268 96 -291 106
-386 167 -54 36 -139 91 -189 124 -49 32 -98 63 -108 69 -9 5 -57 36 -106 67
l-89 57 -196 -77 c-199 -79 -215 -88 -322 -189 -107 -101 -131 -119 -199 -154
-200 -102 -779 -398 -912 -466 -83 -43 -150 -79 -149 -80 2 -2 114 37 161 57
11 5 137 50 280 100 143 50 321 114 395 141 74 28 157 57 183 65 l49 15 206
-82 207 -83 215 -161 c118 -89 227 -169 242 -179 21 -14 358 -521 358 -539 0
-3 19 -47 43 -99 24 -51 68 -148 97 -214 44 -99 61 -126 90 -145 19 -13 40
-28 46 -34 7 -5 55 -39 108 -75 54 -36 129 -87 169 -115 63 -44 105 -61 329
-135 211 -70 257 -89 261 -105 2 -11 19 -81 36 -156 17 -75 34 -147 37 -160 8
-32 13 -78 19 -174 3 -44 7 -98 10 -120 20 -199 24 -418 13 -858 -3 -114 -4
-206 -2 -204 5 4 94 205 181 407 41 96 86 200 100 230 37 82 41 92 48 150 4
29 8 62 11 73 2 11 6 41 9 66 3 25 7 55 9 66 2 11 7 40 10 65 3 25 8 54 10 66
2 12 7 45 11 75 3 30 8 66 10 80 3 14 7 42 9 62 3 20 7 52 10 69 17 101 16
107 -25 225 -22 65 -42 125 -44 133 -6 27 -172 504 -189 545 -10 22 -23 54
-31 70 -7 17 -34 82 -59 145 -26 63 -51 124 -55 135 -42 94 -92 221 -94 238
-1 15 4 21 23 23 83 6 178 16 200 19 14 2 57 7 95 10 70 5 134 12 210 21 48 5
152 6 180 0 11 -2 56 -7 100 -11 44 -4 96 -9 115 -10 55 -5 160 -15 225 -20
180 -16 219 -20 290 -32 22 -4 48 -8 58 -9 9 -1 18 -2 20 -4 1 -1 13 -3 27 -4
54 -6 135 -18 141 -22 4 -2 28 -6 55 -9 27 -3 60 -8 74 -10 14 -3 43 -7 65
-11 l40 -5 -59 35 c-32 20 -60 36 -61 36 -2 0 -45 24 -97 54 -51 29 -113 64
-138 78 -25 14 -117 66 -204 117 -88 50 -161 91 -163 91 -2 0 -20 10 -41 23
-20 13 -64 34 -97 47 -33 12 -73 29 -90 36 -16 7 -122 50 -234 94 -227 90
-248 99 -234 109 5 3 50 62 101 131 76 104 107 137 188 200 53 41 104 82 114
90 9 8 32 26 50 40 18 14 59 45 90 70 31 25 74 59 95 75 21 17 43 35 49 40 6
6 43 35 81 65 39 30 72 57 75 60 3 3 25 21 50 40 25 19 47 37 50 40 4 4 87 70
109 87 2 2 2 5 0 6 -2 2 -29 -6 -59 -19z"/>
</g>
</svg>
